<?xml version="1.0" encoding="UTF-8" standalone="no"?>
<svg
    xmlns="http://www.w3.org/2000/svg"
    width="1024" height="1024" viewBox="0 0 100 100"
    version="1.1"
    id="fishbowl"
>
  <defs>
    <linearGradient id="waterGradient" x1="0%" y1="0%" x2="0%" y2="100%">
      <stop offset="0%" style="stop-color:#87CEEB;stop-opacity:0.5" />
      <stop offset="100%" style="stop-color:#4A90E2;stop-opacity:0.7" />
    </linearGradient>
    <linearGradient id="rimGradient" x1="0%" y1="0%" x2="0%" y2="100%">
      <stop offset="0%" style="stop-color:#E0E0E0;stop-opacity:0.9" />
      <stop offset="100%" style="stop-color:#B0B0B0;stop-opacity:0.95" />
    </linearGradient>
  </defs>

  <path d="M 15 25 A 43.75 43.75 0 0 0 29.7 90 L 70.3 90 A 43.75 43.75 0 0 0 85 25" 
        fill="#FFFFFF" fill-opacity="0.1" stroke="#A0A0A0" stroke-width="1.5" />

  <path d="M 15 25 A 43.75 43.75 0 0 0 29.7 90 L 70.3 90 A 43.75 43.75 0 0 0 85 25 A 35 5 0 0 0 15 25" 
        fill="url(#waterGradient)" stroke="none" />
        
  <ellipse cx="50" cy="25" rx="35" ry="5" fill="#FFFFFF" fill-opacity="0.3" />

  <ellipse cx="50" cy="25" rx="38" ry="7" fill="none" stroke="#C0C0C0" stroke-width="4" />
  <ellipse cx="50" cy="25" rx="35" ry="5" fill="none" stroke="#808080" stroke-width="1" />
   
  <path d="M 20 35 Q 15 55 20 75" stroke="#FFFFFF" stroke-width="2" fill="none" opacity="0.4" stroke-linecap="round" />
  <path d="M 80 35 Q 85 55 80 75" stroke="#FFFFFF" stroke-width="2" fill="none" opacity="0.4" stroke-linecap="round" />

</svg>